# xmcd CD Database Entry
#
# Track frame offsets:
# 150
# 16167
# 31183
# 47312
#
# Disc length: 976 seconds
#
# Revision: 1
# Processed by: cddbd v1.4PL0 Copyright (c) Steve Scherf et al.
# Submitted via: tcd 2.0b
#
DISCID=1d03ce04
DTITLE=dev null - demo
DYEAR=1900
DGENRE=
TTITLE0=brooklyn (karaoke)
TTITLE1=fade away
TTITLE2=rales
TTITLE3=kidz
EXTD=
EXTT0=
EXTT1=
EXTT2=
EXTT3=
PLAYORDER=
